<svg width="51" height="37" viewBox="0 0 51 37" fill="none" xmlns="http://www.w3.org/2000/svg">
<path d="M49.5817 7.89146C49.5817 7.89146 49.0925 4.31183 47.5859 2.7254C45.688 0.650842 43.5552 0.650842 42.5573 0.528809C35.5722 0 25.0648 0 25.0648 0H25.0452C25.0452 0 14.538 0 7.51356 0.528809C6.53524 0.650842 4.40244 0.650842 2.48495 2.7254C0.997893 4.31183 0.508734 7.89146 0.508734 7.89146C0.508734 7.89146 0 12.1219 0 16.3321V20.2778C0 24.4879 0.508734 28.6981 0.508734 28.6981C0.508734 28.6981 0.997893 32.2777 2.50452 33.8641C4.40244 35.9387 6.90696 35.8777 8.0223 36.0811C12.0334 36.4878 25.0452 36.6099 25.0452 36.6099C25.0452 36.6099 35.572 36.5895 42.5769 36.0607C43.5552 35.9387 45.688 35.9387 47.6055 33.8641C49.1121 32.2777 49.6013 28.6981 49.6013 28.6981C49.6013 28.6981 50.11 24.4879 50.11 20.2778V16.3321C50.0904 12.1219 49.5817 7.89146 49.5817 7.89146ZM19.8798 25.0574V10.4338L33.4196 17.7761L19.8798 25.0574Z" fill="#FC0006"/>
</svg>
